HIERARCHY
ROOT Hips
{
  OFFSET -32.5998 29.0326 120.673
  CHANNELS 6 Xposition Yposition Zposition Zrotation Xrotation Yrotation
  JOINT LeftUpLeg
  {
    OFFSET 8.64259 1.95398 -2.38835
    CHANNELS 3 Zrotation Xrotation Yrotation
    JOINT LeftLeg
    {
      OFFSET 43.7702 0 0
      CHANNELS 3 Zrotation Xrotation Yrotation
      JOINT LeftFoot
      {
        OFFSET 40.6238 0 0
        CHANNELS 3 Zrotation Xrotation Yrotation
        JOINT LeftToeBase
        {
          OFFSET 12.7242 0 0
          CHANNELS 3 Zrotation Xrotation Yrotation
          End Site
          {
            OFFSET 0 0 0
          }
        }
      }
    }
  }
  JOINT RightUpLeg
  {
    OFFSET -8.2249 1.95398 -2.59336
    CHANNELS 3 Zrotation Xrotation Yrotation
    JOINT RightLeg
    {
      OFFSET 43.5653 0 0
      CHANNELS 3 Zrotation Xrotation Yrotation
      JOINT RightFoot
      {
        OFFSET 40.6238 0 0
        CHANNELS 3 Zrotation Xrotation Yrotation
        JOINT RightToeBase
        {
          OFFSET 12.7242 0 0
          CHANNELS 3 Zrotation Xrotation Yrotation
          End Site
          {
            OFFSET 0 0 0
          }
        }
      }
    }
  }
  JOINT Spine
  {
    OFFSET 0.165834 0.87714 6.61349
    CHANNELS 3 Zrotation Xrotation Yrotation
    JOINT Spine1
    {
      OFFSET 7.38963 1.71661e-005 0
      CHANNELS 3 Zrotation Xrotation Yrotation
      JOINT Spine2
      {
        OFFSET 11.9445 1.14441e-005 0
        CHANNELS 3 Zrotation Xrotation Yrotation
        JOINT Spine3
        {
          OFFSET 14.7254 4.19617e-005 0
          CHANNELS 3 Zrotation Xrotation Yrotation
          JOINT Spine4
          {
            OFFSET 10.9679 0 0
            CHANNELS 3 Zrotation Xrotation Yrotation
            JOINT RightShoulder
            {
              OFFSET 2.46616 -1.6653 3.69651
              CHANNELS 3 Zrotation Xrotation Yrotation
              JOINT RightArm
              {
                OFFSET 13.0012 0 0
                CHANNELS 3 Zrotation Xrotation Yrotation
                JOINT RightForeArm
                {
                  OFFSET 28.7848 1.62311e-005 0
                  CHANNELS 3 Zrotation Xrotation Yrotation
                  JOINT RightHand
                  {
                    OFFSET 26.5688 1.62095e-005 0
                    CHANNELS 3 Zrotation Xrotation Yrotation
                    End Site
                    {
                      OFFSET 0 0 0
                    }
                  }
                }
              }
            }
            JOINT LeftShoulder
            {
              OFFSET 2.38034 -1.29275 -3.7523
              CHANNELS 3 Zrotation Xrotation Yrotation
              JOINT LeftArm
              {
                OFFSET 16.3182 6.07031e-005 0
                CHANNELS 3 Zrotation Xrotation Yrotation
                JOINT LeftForeArm
                {
                  OFFSET 27.0901 0 0
                  CHANNELS 3 Zrotation Xrotation Yrotation
                  JOINT LeftHand
                  {
                    OFFSET 24.5451 1.51738e-005 0
                    CHANNELS 3 Zrotation Xrotation Yrotation
                    End Site
                    {
                      OFFSET 0 0 0
                    }
                  }
                }
              }
            }
            JOINT Neck
            {
              OFFSET 5.0226 -0.0266342 0
              CHANNELS 3 Zrotation Xrotation Yrotation
              JOINT Head
              {
                OFFSET 6.69364 2.86102e-005 0
                CHANNELS 3 Zrotation Xrotation Yrotation
                End Site
                {
                  OFFSET 0 0 0
                }
              }
            }
          }
        }
      }
    }
  }
}
MOTION
Frames:	6
Frame Time:	0.0416667
-240.251 98.0466 211.71 91.5414 15.5682 88.4369 -174.722 -2.71543 88.8978 -5.30117 -2.85836 0.839387 68.2194 4.95576 -1.98551 19.4176 -8.81939 9.10521 174.465 3.40645 89.4909 -14.1936 -25.4626 -1.80548 66.7519 -3.6367 0.538664 23.1695 2.72377 -0.505012 -0.190649 7.14099 -90.1301 12.5915 -0.440703 -0.208558 0.920631 -0.449431 -0.188969 -21.6148 -0.357662 -0.33137 -1.60217 -0.357648 -0.331372 94.1826 -24.536 -99.9261 48.5518 -13.9152 -4.90078 -13.7639 -14.6076 -23.041 -11.2118 -0.146554 -3.80596 -84.3664 -41.5194 86.0881 -38.0468 16.3049 -1.36683 5.89362 -13.4292 -17.0108 0.498527 -0.137208 -6.23252 -8.11862 -32.6252 -24.6926 -4.41108 -30.8449 -8.66379 
-240.06 97.9889 211.783 91.8579 15.9515 88.5078 -174.512 -3.04267 89.3632 -5.30521 -2.99959 0.862159 68.3246 4.76114 -3.4486 18.7019 -7.90391 6.75398 174.477 2.49493 89.6782 -12.902 -21.0479 -1.60036 68.0175 -4.07238 2.95607 21.3926 2.57594 2.49972 -0.19695 7.19471 -90.1391 12.484 -0.457045 -0.225198 0.813144 -0.46654 -0.204864 -21.7223 -0.368241 -0.352147 -1.70966 -0.368267 -0.352159 94.159 -24.8638 -99.8771 48.2858 -14.2103 -5.12907 -13.7772 -14.7553 -23.1649 -11.0286 -0.156555 -3.70596 -84.3471 -41.4206 86.1062 -38.1905 16.1262 -1.00618 7.64652 -9.56416 -17.6302 -2.85047 -0.0847176 -5.01581 -8.12912 -32.6162 -25.0812 -4.45149 -30.8106 -8.51996 
-239.82 98.0135 211.846 91.5531 16.6624 88.5138 -174.352 -2.76408 89.5033 -5.35538 -2.03856 0.655112 68.4228 4.90336 -3.04846 18.0274 -8.12069 6.50633 174.484 2.73304 89.691 -13.5555 -24.0774 -1.69085 67.2182 -3.91402 0.826163 23.0942 2.6541 -0.154401 -0.20547 7.15995 -90.153 12.5534 -0.481073 -0.249766 0.882576 -0.491599 -0.228352 -21.6529 -0.383771 -0.382796 -1.64024 -0.383777 -0.382803 94.1775 -24.7047 -99.8856 48.3489 -13.3952 -5.04851 -13.3293 -13.549 -22.6803 -12.4517 -0.313865 -2.94021 -84.6055 -41.8516 85.7376 -37.9375 16.3842 -1.11854 6.92353 -11.3316 -17.2702 -2.16193 -0.0885383 -5.80204 -7.99343 -32.6169 -24.8274 -4.31206 -30.8043 -8.58787 
-239.445 97.9428 211.936 91.4158 17.1546 88.4632 -174.145 -2.8155 89.721 -5.34028 -1.07275 0.432068 68.4434 5.00462 -2.76634 17.9451 -8.07223 6.34355 174.461 2.57321 89.7241 -13.2738 -23.1898 -1.6251 67.8856 -4.47812 0.151619 22.0159 2.45185 2.03342 -0.211658 7.1501 -90.1723 12.573 -0.502524 -0.285646 0.902167 -0.514637 -0.263257 -21.6333 -0.393466 -0.423476 -1.62061 -0.393448 -0.423476 94.3402 -24.0923 -99.714 48.6758 -12.7403 -5.04815 -13.3075 -14.104 -22.2078 -16.1667 -0.649468 -0.432121 -84.4924 -42.572 86.0298 -37.3822 16.5399 -0.669232 6.38424 -12.1882 -17.9957 -2.11566 -0.0923418 -5.01137 -6.74233 -32.6583 -24.0602 -5.38912 -30.5759 -8.20789 
-238.964 97.971 212.276 91.0308 18.0505 88.8768 -173.517 -2.47899 90.7098 -5.49848 -0.0527684 0.0560666 68.7891 5.10852 -3.72564 17.8599 -8.31591 6.69643 174.909 2.69293 90.4868 -13.7794 -21.8174 -1.66791 67.7869 -4.04934 1.66848 23.0564 2.99158 -1.19138 -0.202192 7.13709 -90.1769 12.599 -0.485888 -0.296774 0.928157 -0.498511 -0.275102 -21.6072 -0.374264 -0.429084 -1.59456 -0.374275 -0.429098 94.2849 -24.5741 -99.6893 48.5592 -13.6219 -5.0128 -13.6023 -14.4312 -22.7276 -12.5985 -0.0806525 -4.58344 -84.6637 -41.7521 85.626 -37.956 16.2041 -1.14031 6.31414 -12.8043 -17.3072 -2.06428 -0.0884944 -4.69097 -7.10073 -32.8363 -25.1786 -4.57677 -30.7899 -7.88546 
-238.226 97.9565 212.552 91.5436 18.7949 88.698 -172.983 -3.10504 91.3049 -5.7167 1.17337 -0.186327 69.1485 5.43086 -3.46334 19.0729 -7.9453 7.18639 174.714 1.64706 90.7569 -13.6768 -21.4116 -1.41788 68.3935 -4.64195 0.508792 22.2863 2.92237 0.175207 -0.161734 7.19829 -90.1661 12.4768 -0.400125 -0.28559 0.805884 -0.412297 -0.26771 -21.7293 -0.295791 -0.392643 -1.71669 -0.295808 -0.392649 94.5373 -24.4288 -99.1748 49.1493 -13.9082 -4.92061 -13.0696 -13.6468 -21.9973 -10.6822 -0.153054 -3.66004 -84.8043 -42.404 85.4902 -36.9465 16.1784 -1.29181 6.27811 -12.8891 -17.0738 -1.34671 -0.0876709 -4.01644 -7.06723 -33.0333 -25.0916 -4.61639 -30.9842 -7.87916 
